<?xml version="1.0" standalone="no"?><!DOCTYPE svg PUBLIC "-//W3C//DTD SVG 1.1//EN" "http://www.w3.org/Graphics/SVG/1.1/DTD/svg11.dtd"><svg t="1591082510740" class="icon" viewBox="0 0 1024 1024" version="1.1" xmlns="http://www.w3.org/2000/svg" p-id="1461" xmlns:xlink="http://www.w3.org/1999/xlink" width="64" height="64"><defs><style type="text/css"></style></defs><path d="M562.193564 658.041534c26.893368 4.520868 80.332346 23.299858 99.343176 3.361671 18.89491-19.938187 25.154573-47.642993 19.358589-74.304523 26.893368 4.520868 54.366335-3.129832 73.261245-23.068018 18.89491-19.938187 25.154573-47.642993 19.358588-74.304523 26.893368 4.520868 54.366335-3.129832 73.261245-23.068018 18.89491-19.938187 25.154573-47.642993 19.358589-74.304523 26.893368 4.520868 54.366335-3.129832 73.261245-23.068018 31.993835-33.616711 27.704806-89.605922-9.505415-124.961428-2.086554-2.086554-4.289029-3.94127-6.607422-5.795984" fill="#90BF34" p-id="1462"></path><path d="M598.476428 604.950315c21.445143 1.970635 44.049483-5.911904 60.625999-23.299858 16.576516-17.387954 23.299858-40.340053 20.285946-61.669276 21.445143 1.970635 44.049483-5.911904 60.625998-23.299858 16.576516-17.387954 23.299858-40.340053 20.285946-61.669276 21.445143 1.970635 44.049483-5.911904 60.625999-23.299858 16.576516-17.387954 23.299858-40.340053 20.285946-61.669276 21.445143 1.970635 44.049483-5.911904 60.625999-23.299858 27.936646-29.327682 28.052565-74.536362 0.231839-101.081971-27.820726-26.42969-73.029406-24.111296-100.966051 5.216386-16.576516 17.387954-23.299858 40.340053-20.285946 61.669276-21.445143-1.970635-44.049483 5.911904-60.625999 23.299858-16.576516 17.387954-23.299858 40.340053-20.285946 61.669276-21.445143-1.970635-44.049483 5.911904-60.625999 23.299858-16.576516 17.387954-23.299858 40.340053-20.285946 61.669276-21.445143-1.970635-44.049483 5.911904-60.625998 23.299858-16.576516 17.387954-23.299858 40.340053-20.285946 61.669276" fill="#B1DD6B" p-id="1463"></path><path d="M787.309606 506.070818c-5.680065 0-11.476049-0.463679-17.272034-1.391036l-15.996918-2.666153 5.332306-31.993835 15.996917 2.666153c22.836179 3.82535 44.281322-2.897992 58.887204-18.315312 14.605881-15.417319 20.170026-37.210221 15.301399-59.81456l-5.100466-23.299858 23.531697 3.941269c22.836179 3.82535 44.281322-2.897992 58.887203-18.315311 25.850091-27.125208 21.792902-72.913486-8.809896-102.125249-10.085013-9.505415-22.140661-16.576516-35.007747-20.170026l-15.649159-4.404948 8.809897-31.298317 15.649158 4.404948c17.967552 5.100466 34.775907 14.721801 48.686271 27.936646 43.585804 41.49925 48.106672 107.921233 9.969093 148.029446-17.156114 18.083472-41.26741 28.400324-66.769742 29.327682 0.347759 25.618252-8.693977 50.077307-25.966011 68.160779-18.083472 18.89491-43.585804 29.327682-70.479172 29.327682z" fill="" p-id="1464"></path><path d="M618.182776 26.626973c5.795985 2.897992 11.12829 6.143744 16.112837 9.853174 34.544068 25.734172 48.106672 70.247333 30.139119 106.646116-12.171568 24.690894-36.051024 40.108213-63.060312 43.817644 13.446684 23.763537 15.765078 52.047942 3.593511 76.738836s-36.051024 40.108213-63.060313 43.817643c13.446684 23.763537 15.765078 52.047942 3.593511 76.738836-12.171568 24.690894-36.051024 40.108213-63.060312 43.817643 13.446684 23.763537 15.765078 52.047942 3.59351 76.738836s-36.051024 40.108213-63.060312 43.817644" fill="#90BF34" p-id="1465"></path><path d="M380.199649 472.338188c-6.607422-21.561063-4.636788-47.411154 7.071101-69.783655 11.707889-22.3725 30.602799-36.514703 50.193226-39.876374-6.607422-21.561063-4.636788-47.411154 7.071101-69.783654s30.602799-36.514703 50.193227-39.876374c-6.607422-21.561063-4.636788-47.411154 7.071101-69.783654s30.602799-36.514703 50.193227-39.876374c-6.607422-21.561063-4.636788-47.411154 7.071101-69.783654 19.706348-37.905739 59.930481-51.816102 89.837761-31.182398 29.791361 20.633705 38.021659 68.044859 18.199391 105.950599-11.707889 22.3725-30.602799 36.514703-50.193226 39.876374 6.607422 21.561063 4.636788 47.411154-7.071101 69.783654s-30.602799 36.514703-50.193227 39.876374c6.607422 21.561063 4.636788 47.411154-7.071101 69.783654-11.707889 22.3725-30.602799 36.514703-50.193226 39.876374 6.607422 21.561063 4.636788 47.411154-7.071102 69.783654-11.707889 22.3725-30.602799 36.514703-50.193226 39.876374" fill="#B1DD6B" p-id="1466"></path><path d="M436.884378 280.722937l-7.998459-14.142202c-16.576516-29.211762-18.083472-63.523991-4.057189-92.040235 11.012371-22.3725 30.950558-39.412695 55.061853-47.874833-7.998459-24.343135-6.607422-50.425066 4.404949-72.797566 11.939728-24.343135 33.616711-41.962928 60.857838-49.729548 26.661529-7.53478 55.641452-4.752707 81.491543 8.114379 17.156114 8.462137 31.993835 20.981464 42.890286 36.051024L679.272453 61.518801l-26.31377 19.010829-9.505415-13.098925c-7.882539-10.896451-18.547151-19.822267-31.066477-25.966011-18.66307-9.157656-39.412695-11.36013-58.307605-5.911904-18.315311 5.216386-32.689353 16.808355-40.571892 32.805272-9.389495 19.010829-8.230298 41.49925 3.129832 61.553357l11.823808 20.749624-23.647617 3.245752c-22.952099 3.129832-41.38333 15.880998-50.772825 35.007747-9.389495 19.010829-8.230298 41.49925 3.129832 61.553356l7.998459 14.142202-28.284405 16.112837z" fill="" p-id="1467"></path><path d="M518.491841 259.277794L635.10705 92.237519c28.400324-40.803731 95.054147-43.817643 148.029447-6.839262l34.775907 24.227216c52.975299 36.978382 73.029406 100.618292 44.629081 141.306104L634.643372 577.477348" fill="#FF8A3B" p-id="1468"></path><path d="M800.52445 256.843481l-297.913607 429.714297c-25.502332 36.862462-78.477631 41.035571-117.774407 9.389495l-25.734171-20.749625c-39.180856-31.646076-50.425066-87.635287-24.922734-124.497749l297.913608-429.714297c25.502332-36.862462 78.477631-41.035571 117.774406-9.389495l25.734172 20.749625c39.180856 31.646076 50.425066 87.635287 24.922733 124.497749z" fill="#FFC176" p-id="1469"></path><path d="M698.515122 514.301116l-26.661529-18.547151 162.287568-232.418981c31.646076-45.440519 20.517785-108.153072-24.806814-139.799148L773.167403 98.265343c-21.908822-15.301399-48.570351-21.097384-75.00004-16.344677-26.545609 4.752707-49.497708 19.358588-64.799108 41.267411l-162.287568 232.418981-26.661529-18.54715 162.287568-232.418982C648.669654 44.594526 731.668154 29.756805 791.714554 71.719733l36.166944 25.154574c60.0464 41.962928 74.884121 124.961428 32.921192 185.007827l-162.287568 232.418982z" fill="" p-id="1470"></path><path d="M565.091557 509.664328c-1.043277 0-1.970635-0.11592-3.013912-0.231839-8.809897-1.622876-14.605881-10.085013-12.983006-18.89491 0.811438-4.636788-4.289029-8.925816-16.924275-17.387954-12.287487-8.346218-27.472967-18.66307-30.834638-36.514702-2.202474-11.823809 1.159197-23.995376 10.316853-37.210221 9.157656-13.214845 19.358588-20.749625 31.066477-22.83618 17.851633-3.245751 33.037112 7.187021 45.20868 15.649159 6.955181 4.752707 14.142202 9.737254 19.126749 10.432772 1.275117 0.11592 4.984547 0.695518 11.707889-9.041736 6.839262-9.737254 5.100466-12.983005 4.520868-14.142202-2.318394-4.404948-9.505415-9.389495-16.460596-14.258122-9.621334-6.723342-20.517785-14.374042-26.54561-25.734172-7.6507-14.489961-5.448226-30.602799 6.607423-47.874833 9.041736-12.983005 19.242669-20.401866 30.834638-22.3725 17.851633-3.129832 32.921192 7.41886 44.97684 15.880998 7.187021 5.100466 16.228757 11.36013 20.749625 10.548692 2.666153-0.463679 6.259663-3.82535 9.969093-9.041736 6.839262-9.737254 5.100466-13.098925 4.520868-14.142203-2.318394-4.404948-9.389495-9.389495-16.344676-14.258122-9.621334-6.723342-20.517785-14.374042-26.54561-25.734171-7.6507-14.489961-5.564145-30.602799 6.375583-47.874833 9.041736-13.098925 19.126749-20.517785 30.718719-22.60434 17.851633-3.245751 32.921192 7.302941 45.09276 15.880998 6.955181 4.868627 14.142202 9.853174 19.126749 10.548692 1.275117 0.11592 4.984547 0.695518 11.707889-9.041736 5.100466-7.302941 15.301399-9.157656 22.60434-4.057189 7.302941 5.100466 9.157656 15.301399 4.057189 22.60434-12.055648 17.272034-26.42969 24.806814-42.774366 22.604339-12.751166-1.738795-23.647617-9.389495-33.384872-16.112837-7.187021-5.100466-16.228757-11.36013-20.749624-10.548692-2.550233 0.463679-6.143744 3.82535-9.853174 9.041736-6.723342 9.853174-4.984547 13.214845-4.404948 14.258122 2.318394 4.404948 9.505415 9.389495 16.460596 14.258122 9.621334 6.723342 20.517785 14.374042 26.545609 25.734172 7.6507 14.489961 5.332306 30.602799-6.607422 47.874833-9.157656 13.098925-19.242669 20.401866-30.950558 22.48842-17.851633 3.129832-32.921192-7.41886-45.09276-15.880998-7.187021-5.100466-16.112837-11.36013-20.749625-10.548692-2.666153 0.463679-6.259663 3.70943-9.969093 9.041736-6.839262 9.737254-5.100466 12.983005-4.520868 14.142202 2.318394 4.404948 9.505415 9.389495 16.460596 14.258123 9.621334 6.723342 20.517785 14.374042 26.545609 25.734171 7.6507 14.489961 5.448226 30.602799-6.607422 47.874833-11.939728 17.156114-26.31377 24.806814-42.542527 22.60434-12.751166-1.738795-23.647617-9.273575-33.268951-15.880998-7.302941-4.984547-16.344677-11.24421-20.981465-10.432772-2.666153 0.463679-6.491503 3.94127-10.200932 9.389495-3.70943 5.448226-5.680065 10.085013-5.100467 12.751166 0.811438 4.520868 9.853174 10.664612 17.156115 15.649158 14.142202 9.621334 35.471426 23.995376 30.602798 50.309146-1.159197 7.6507-7.998459 13.098925-15.649158 13.098925z" fill="#FF3333" p-id="1471"></path><path d="M258.020294 874.695437L444.766917 1005.10509c8.925816 6.259663 21.329223 4.057189 27.588886-4.868627l70.015494-100.270533c6.259663-8.925816 4.057189-21.329223-4.868627-27.588887L350.756047 741.851471" fill="#FFE266" p-id="1472"></path><path d="M493.800946 842.585683L217.216562 649.463476c-10.432772-7.302941-25.038653-4.752707-32.225674 5.795985l-66.190144 94.706388c-7.302941 10.432772-4.752707 25.038653 5.795985 32.225674L401.065193 975.31373c10.432772 7.302941 25.038653 4.752707 32.225674-5.795985l66.190144-94.706388c7.302941-10.432772 4.752707-24.922734-5.680065-32.225674z" fill="#FFEC8D" p-id="1473"></path><path d="M454.85193 1024c-7.998459 0-15.765078-2.434314-22.48842-7.071101L64.318489 760.050862c-17.851633-12.403407-22.140661-37.094301-9.737254-54.830014l66.190144-94.706388 26.661529 18.547151-66.190144 94.706388c-2.202474 3.129832-1.391036 7.53478 1.738795 9.737254L450.910661 990.383289c1.970635 1.391036 4.173109 1.275117 5.216386 1.159197 1.043277-0.231839 3.129832-0.811438 4.520868-2.782072l66.190144-94.706388 26.661529 18.54715-66.190144 94.706388c-6.027824 8.578057-15.06956 14.374042-25.386413 16.228757-2.434314 0.347759-4.752707 0.463679-7.071101 0.463679z" fill="" p-id="1474"></path><path d="M336.729764 751.472805l108.153073 240.997039c6.259663 14.026283 25.502332 15.880998 34.312228 3.245751l316.692598-453.593753c8.809897-12.635246 0.463679-30.0232-14.837721-31.066477l-256.646197-17.967553" fill="#FFE266" p-id="1475"></path><path d="M264.395877 532.036829l134.698681 398.995578c6.027824 17.967552 30.13912 21.445143 40.919652 5.911905l286.321638-410.123869c10.896451-15.649158-0.579598-36.978382-19.590428-36.398783l-420.9044 11.12829c-15.765078 0.231839-26.42969 15.649158-21.445143 30.486879z" fill="#FFEC8D" p-id="1476"></path><path d="M463.429987 1017.624417c-1.275117 0-2.550233-0.11592-3.82535-0.231839-14.374042-1.391036-26.42969-9.969093-32.225674-23.068019l-105.950598-236.244332 29.559521-13.330764 105.950598 236.244331c1.391036 3.245751 4.173109 3.94127 5.680065 4.05719 1.506956 0.11592 4.289029 0 6.375583-2.897993l309.853336-443.856499c1.970635-2.897992 1.275117-5.564145 0.579599-6.955181-0.695518-1.391036-2.318394-3.70943-5.795985-3.94127l-250.734293-17.503873 2.318394-32.341594L775.833556 495.058447c14.374042 1.043277 26.661529 9.389495 32.805273 22.372501 6.143744 12.983005 4.984547 27.820726-3.245752 39.528615L495.539742 1000.700142c-7.41886 10.780531-19.242669 16.924275-32.109755 16.924275z" fill="" p-id="1477"></path><path d="M311.807031 755.877753l308.11454 21.561063c14.95364 1.043277 25.618252-14.258122 19.474508-27.820726L512.927696 467.7014" fill="#FFE266" p-id="1478"></path><path d="M598.824187 719.942649L463.545907 320.483392c-6.143744-17.967552-30.13912-21.445143-40.919651-5.795985l-286.321639 410.239789c-10.896451 15.533239 0.579598 36.978382 19.590428 36.398783l421.599919-10.664612c15.533239-0.463679 26.31377-15.880998 21.329223-30.718718z" fill="#FFEC8D" p-id="1479"></path><path d="M334.990969 774.308984L87.386508 757.03695c-14.374042-1.043277-26.661529-9.389495-32.805273-22.3725-6.143744-12.983005-4.984547-27.704806 3.245751-39.528615l64.10359-91.924316 26.661529 18.547151-64.10359 91.924316c-1.970635 2.897992-1.275117 5.564145-0.579598 6.955181s2.318394 3.70943 5.795984 3.94127l247.488542 17.387953-2.202474 32.341594zM609.836558 724.579437L406.281579 270.985683c-1.391036-3.245751-4.173109-3.94127-5.680065-4.057189-1.506956-0.11592-4.289029 0-6.375583 2.897992L259.41133 463.064612l-26.661529-18.54715 134.814601-193.122207c8.230298-11.823809 21.676982-18.083472 36.051024-16.692435 14.374042 1.391036 26.42969 9.969093 32.225675 23.068018l203.439058 453.593754-29.443601 13.214845z" fill="" p-id="1480"></path><path d="M452.069857 596.720017l207.03257 144.551855c8.925816 6.259663 11.12829 18.66307 4.868627 27.588887l-90.765119 129.945974c-6.259663 8.925816-18.66307 11.12829-27.588886 4.868627L338.700399 759.123505" fill="#EAE5D0" p-id="1481"></path><path d="M481.397539 859.509958L136.768296 618.976598c-10.432772-7.302941-12.983005-21.792902-5.795984-32.225675l86.823849-124.381829c7.302941-10.432772 21.792902-12.983005 32.225674-5.795984L594.651078 697.222389c10.432772 7.302941 12.983005 21.792902 5.795985 32.225675l-86.823849 124.381829c-7.302941 10.432772-21.792902 12.983005-32.225675 5.680065z" fill="#FFFFFF" p-id="1482"></path><path d="M555.817981 922.68619c-7.998459 0-15.765078-2.434314-22.48842-7.071102L124.712648 630.336727c-17.851633-12.403407-22.140661-37.094301-9.737254-54.830014L201.799243 451.008964c12.403407-17.851633 37.094301-22.140661 54.830014-9.737254l408.616913 285.278361c17.851633 12.403407 22.140661 37.094301 9.737254 54.830014l-86.823849 124.38183c-6.027824 8.578057-15.06956 14.374042-25.386412 16.228756-2.318394 0.463679-4.636788 0.695518-6.955182 0.695519zM234.140837 466.658123c-0.463679 0-0.927358 0-1.275116 0.115919-1.043277 0.231839-3.129832 0.811438-4.520868 2.782073L141.521004 594.053864c-2.202474 3.129832-1.391036 7.53478 1.738795 9.737254l408.616913 285.278361c2.086554 1.391036 4.173109 1.275117 5.216386 1.159197 1.043277-0.231839 3.129832-0.811438 4.520868-2.782073L648.437815 762.832935c2.202474-3.129832 1.391036-7.53478-1.738795-9.737254l-408.616913-285.162442c-1.391036-1.043277-2.782073-1.275117-3.94127-1.275116z" fill="" p-id="1483"></path></svg>