<?xml version="1.0" standalone="no"?><!DOCTYPE svg PUBLIC "-//W3C//DTD SVG 1.1//EN" "http://www.w3.org/Graphics/SVG/1.1/DTD/svg11.dtd"><svg t="1591083097506" class="icon" viewBox="0 0 1024 1024" version="1.1" xmlns="http://www.w3.org/2000/svg" p-id="1925" xmlns:xlink="http://www.w3.org/1999/xlink" width="64" height="64"><defs><style type="text/css"></style></defs><path d="M515.324581 15.876867h58.40833c9.618832 0 17.383431 6.258035 17.383431 13.906745v667.523767c0 7.64871-7.880489 13.906745-17.383431 13.906745h-58.40833M704.803984 96.767768l67.795382 8.807605c9.039384 1.158895 15.760978 8.344047 14.717972 15.876868L701.674966 783.413309c-0.927116 7.53282-9.271163 12.863739-18.310548 11.704844l-71.619737-9.271163M301.276596 123.074694l65.361702-14.254413c8.923495-1.970122 17.499321 2.54957 19.121774 10.08239l66.636488 305.484835 6.142145 346.625622c1.622454 7.416931-4.287913 15.18153-13.211408 17.151652l10.777728 12.86374M872.95971 47.282933l63.043912 8.112268c9.502943 1.274785 16.340426 8.459937 15.413309 15.992757l-85.642372 661.961069c-0.927116 7.53282-9.502943 12.74785-19.005885 11.588954l-76.13943-9.850611M98.238117 82.976913l55.974649-15.529199c7.416931-2.086012 15.065641 2.317791 17.151652 9.734721L349.370756 707.737438c2.086012 7.416931-2.317791 15.065641-9.734722 17.151652l-54.699864 15.18153" fill="#FFD522" p-id="1926"></path><path d="M809.104572 737.752829l-20.396559-2.665459c-7.53282-0.927116-12.979629-7.996378-12.052513-15.529199l85.642372-661.961068c0.927116-7.53282 7.996378-12.979629 15.529199-12.052513l20.39656 2.66546c7.53282 0.927116 12.979629 7.996378 12.052512 15.529199l-85.642372 661.961068c-0.927116 7.64871-7.996378 12.979629-15.529199 12.052512z" fill="#FFE471" p-id="1927"></path><path d="M763.907651 469.932096c-0.695337 0-1.390675 0-2.086012-0.11589-8.923495-1.158895-15.18153-9.271163-14.022635-18.194658l52.034405-402.136713c1.043006-7.996378 5.09914-15.065641 11.473065-19.933002 6.373925-4.867361 14.254414-7.069262 22.250792-6.026256L943.88411 37.779991c16.456315 2.086012 28.161159 17.267542 25.959258 33.723857l-34.419194 265.502942c-1.158895 8.923495-9.271163 15.18153-18.194658 14.022635-8.923495-1.158895-15.18153-9.271163-14.022635-18.194658L937.278407 69.533726l-105.691263-13.674966-51.802626 399.818922c-0.811227 8.228158-7.880489 14.254414-15.876867 14.254414z" fill="" p-id="1928"></path><path d="M643.034857 787.469443l-21.207786-2.781349c-7.53282-0.927116-12.979629-7.996378-12.052512-15.529199l85.642372-661.961068c0.927116-7.53282 7.996378-12.979629 15.529198-12.052512l21.207787 2.781349c7.53282 0.927116 12.979629 7.996378 12.052512 15.529198l-85.642372 661.961069c-0.927116 7.64871-7.996378 13.095518-15.529199 12.052512z" fill="#FFE471" p-id="1929"></path><path d="M595.404255 583.735627c-0.695337 0-1.390675 0-2.086011-0.11589-8.923495-1.158895-15.18153-9.271163-14.022635-18.194658l60.262562-465.528293c2.086012-16.456315 17.267542-28.161159 33.723857-25.959258l110.326845 14.254414c7.996378 1.043006 15.065641 5.09914 19.933001 11.473065 4.867361 6.373925 7.069262 14.254414 6.026256 22.250792l-45.892259 354.73789c-1.158895 8.923495-9.271163 15.18153-18.194658 14.022635-8.923495-1.158895-15.18153-9.271163-14.022634-18.194658l45.660479-352.4201-105.691263-13.674966-59.914893 463.210503c-1.158895 8.228158-8.112268 14.138524-16.108647 14.138524z" fill="" p-id="1930"></path><path d="M83.983703 103.257583c-2.086012-7.416931 2.317791-15.065641 9.618832-17.151653L115.27388 79.963785c7.416931-2.086012 15.065641 2.317791 17.151652 9.618832L312.633771 732.42191c2.086012 7.416931-2.317791 15.065641-9.618832 17.151653l-21.671345 6.142145c-7.416931 2.086012-15.065641-2.317791-17.151652-9.618832" fill="#FFE471" p-id="1931"></path><path d="M264.423721 424.619285c-7.069262 0-13.559077-4.635582-15.645088-11.820734L157.110005 85.178814 54.43187 114.03531l60.146672 221.928475c2.317791 8.691716-2.781349 17.615211-11.473064 19.933001s-17.615211-2.781349-19.933002-11.473065L22.446356 120.409235c-4.403803-15.992757 4.98325-32.564962 20.860118-37.084654L150.504301 53.30919c15.992757-4.519692 32.680851 4.867361 37.200543 20.860117l92.363965 329.70575c2.43368 8.575826-2.665459 17.615211-11.241285 20.04889-1.506564 0.463558-2.897239 0.695337-4.403803 0.695338z" fill="" p-id="1932"></path><path d="M482.991399 799.753735l-22.714351 4.98325c-7.416931 1.622454-14.949751-3.129018-16.572204-10.661838L301.392485 141.96469c-1.622454-7.416931 3.129018-14.949751 10.661838-16.572205l22.714351-4.98325c7.416931-1.622454 14.949751 3.129018 16.572204 10.661838l142.312359 652.226347c1.506564 7.416931-3.244907 14.833861-10.661838 16.456315z" fill="#FFE471" p-id="1933"></path><path d="M332.798551 517.330919c-7.416931 0-14.138524-5.215029-15.876867-12.74785l-76.255319-349.406971c-1.738343-7.880489-0.231779-15.876867 4.056134-22.714351s11.125396-11.473065 18.889995-13.211407l108.704391-23.757357c7.880489-1.738343 15.876867-0.231779 22.714351 4.056134 6.837483 4.403803 11.473065 11.125396 13.211408 18.889996l64.666365 287.406066c1.970122 8.691716-3.476686 17.383431-12.284292 19.353553-8.691716 1.970122-17.383431-3.476686-19.353554-12.284291l-64.202806-285.320054-104.184699 22.946129 75.791761 347.089181c1.854233 8.807605-3.592576 17.383431-12.400181 19.353553-1.158895 0.231779-2.317791 0.347669-3.476687 0.347669z m43.806248-391.706655z" fill="" p-id="1934"></path><path d="M537.227705 711.561793h-21.323676c-7.64871 0-13.906745-6.258035-13.906745-13.906745V30.131281c0-7.64871 6.258035-13.906745 13.906745-13.906745h21.323676c7.64871 0 13.906745 6.258035 13.906745 13.906745v667.523767c0 7.64871-6.258035 13.906745-13.906745 13.906745z" fill="#FFE471" p-id="1935"></path><path d="M596.79493 583.967406c-8.923495 0-16.224536-7.301041-16.224536-16.224536V32.449072h-106.61838v535.177909c0 8.923495-7.301041 16.224536-16.224536 16.224536s-16.224536-7.301041-16.224535-16.224536V30.131281c0-16.572205 13.559077-30.131281 30.131281-30.131281h111.253961c16.572205 0 30.131281 13.559077 30.131281 30.131281v537.611589c0 8.923495-7.185152 16.224536-16.224536 16.224536z" fill="" p-id="1936"></path><path d="M548.121322 1007.427795h319.855138c12.74785 0 23.177909-10.430059 23.177908-23.177908l92.711635-620.93617c0-12.74785-10.430059-23.177909-23.177909-23.177909H809.68402c-24.452694 129.33273-134.895428 228.302399-269.674966 235.255772-4.98325 0.231779-9.966501 0.347669-15.065641 0.347669" fill="#FCE0B9" p-id="1937"></path><path d="M892.892712 348.479855h-93.98642c-21.555455 130.723404-156.798551 229.577184-277.439565 229.577184s-255.768221-98.85378-277.439565-229.577184H150.040742c-10.893617 0-19.701222 10.19828-19.701222 22.598461l79.036668 604.827524c0 12.400181 8.923495 22.598461 19.701223 22.598461h584.778632c10.893617 0 19.701222-10.19828 19.701223-22.598461L912.593934 371.078316c0.11589-12.400181-8.807605-22.598461-19.701222-22.598461z" fill="#FFF1D9" p-id="1938"></path><path d="M943.420552 667.060208c-0.811227 0-1.622454-0.11589-2.43368-0.231779-8.807605-1.274785-14.949751-9.618832-13.674966-18.426437L969.959258 362.734269c-0.463558-3.360797-3.360797-6.142146-6.953373-6.142146h-137.908556C792.880036 493.921231 669.689452 592.195564 527.261204 592.195564s-265.502943-98.274332-297.836125-235.603441h-137.908556c-3.476686 0-6.489814 2.665459-6.953372 6.142146L126.862834 645.736532c1.274785 8.807605-4.751471 17.151652-13.674966 18.426438-8.923495 1.274785-17.151652-4.751471-18.426437-13.674966L52.345858 366.095066c-0.11589-0.811227-0.231779-1.622454-0.231779-2.433681 0-21.671344 17.7311-39.402445 39.402444-39.402444h151.119964c7.764599 0 14.486193 5.562698 15.992757 13.211408 24.336804 128.869172 137.329108 222.392033 268.74785 222.392032 131.302852 0 244.411046-93.522861 268.747849-222.392032 1.506564-7.64871 8.112268-13.211408 15.992757-13.211408h151.119964c21.671344 0 39.402445 17.7311 39.402445 39.402444 0 0.811227-0.11589 1.622454-0.231779 2.433681l-42.879131 287.174287c-1.274785 8.112268-8.228158 13.790856-16.108647 13.790855zM870.294251 1024h-686.066093c-21.323676 0-38.707107-16.919873-39.402445-38.01177l-21.787234-146.020824c-1.274785-8.807605 4.751471-17.151652 13.674966-18.426437 8.807605-1.274785 17.151652 4.751471 18.426437 13.674966l21.903124 147.06383c0.11589 0.811227 0.231779 1.622454 0.231779 2.43368 0 3.824355 3.129018 6.953373 6.953373 6.953373h686.066093c3.824355 0 6.953373-3.129018 6.953372-6.953373 0-0.811227 0.11589-1.622454 0.231779-2.43368l23.641467-158.189226c1.274785-8.807605 9.618832-14.949751 18.426437-13.674966 8.807605 1.274785 14.949751 9.618832 13.674967 18.426437l-23.409688 157.14622c-0.811227 21.091897-18.194658 38.01177-39.518334 38.01177z" fill="" p-id="1939"></path><path d="M524.943413 671.464011l445.015845-23.177909c7.64871 0 13.906745 6.258035 13.906745 13.906745l-34.766863 146.600272c0 7.64871-6.258035 13.906745-13.906745 13.906745l-412.798552 23.177909" fill="#FC3F3F" p-id="1940"></path><path d="M858.821186 825.249434l-343.264826 23.177909-329.47397-23.177909c-6.373925 0-21.207786-6.258035-21.207786-13.906745L136.018108 664.742417c0-7.64871 5.215029-13.906745 11.588954-13.906745l370.03531 23.177909 370.03531-23.177909c6.373925 0 11.588954 6.258035 11.588954 13.906745l-28.856496 146.600272c0 7.64871-5.215029 13.906745-11.588954 13.906745z" fill="#FF6464" p-id="1941"></path><path d="M524.827524 864.651879h-0.927117L128.021729 841.47397c-12.052512-0.231779-38.938886-8.344047-41.024898-27.697601L52.577637 668.566772c-0.347669-1.274785-0.463558-2.43368-0.463558-3.708465 0-16.572205 13.559077-30.131281 30.131281-30.131281h0.811227l444.204617 23.177908 444.204618-23.177908h0.811226c16.572205 0 30.131281 13.559077 30.131282 30.131281 0 1.274785-0.11589 2.54957-0.463559 3.708465l-34.419194 145.093708c-1.158895 15.413309-13.906745 27.581711-29.551833 27.92938l-412.334993 23.177908c-0.231779-0.11589-0.579448-0.11589-0.811227-0.115889zM118.518787 805.779991c2.781349 1.506564 7.880489 3.129018 10.19828 3.244907h0.927116l395.183341 23.177909 410.59665-23.062019c0.11589-0.463558 0.11589-1.043006 0.231779-1.506564l33.260299-140.342237-440.843821 22.94613h-1.738343L85.606157 667.291987l32.91263 138.488004z" fill="" p-id="1942"></path></svg>