<?xml version="1.0" standalone="no"?><!DOCTYPE svg PUBLIC "-//W3C//DTD SVG 1.1//EN" "http://www.w3.org/Graphics/SVG/1.1/DTD/svg11.dtd"><svg t="1591082909676" class="icon" viewBox="0 0 1024 1024" version="1.1" xmlns="http://www.w3.org/2000/svg" p-id="1620" xmlns:xlink="http://www.w3.org/1999/xlink" width="64" height="64"><defs><style type="text/css"></style></defs><path d="M523.816684 285.57074H790.040441c12.743522 0 23.17004 10.426518 23.17004 23.17004l-46.34008 673.437206c0 12.743522-10.426518 25.487044-23.170039 25.487043H511.999964" fill="#917070" p-id="1621"></path><path d="M511.999964 216.060621h359.135616c12.743522 0 23.17004 10.426518 23.17004 23.17004v23.170039c0 12.743522-10.426518 23.17004-23.17004 23.17004H510.030511" fill="#E0DEDE" p-id="1622"></path><path d="M520.920429 146.434651H784.247931c25.487044 0 46.34008 20.853036 46.34008 46.34008 0 12.743522-10.426518 23.17004-23.17004 23.17004H523.816684" fill="#BCBCBC" p-id="1623"></path><path d="M523.816684 934.331853H743.700362c12.743522 0 23.17004 7.414413 23.170039 16.450729v48.657083c0 9.036316-10.426518 8.225364-23.170039 8.225364H520.920429" fill="#BABABA" p-id="1624"></path><path d="M511.999964 488.887839h304.686023c7.646113 0 13.902024 6.255911 13.902024 13.902024l-23.17004 203.89635c0 7.646113-6.255911 13.902024-13.902024 13.902024H514.316968" fill="#FF4343" p-id="1625"></path><path d="M689.019068 1007.665029H332.663856c-9.847267 0-17.840931-12.743522-17.84093-25.487043L279.141064 308.74078c0-12.743522 7.993664-23.17004 17.840931-23.17004h427.718934c9.847267 0 17.840931 10.426518 17.840931 23.17004l-35.681862 673.437206c0 12.743522-7.993664 25.487044-17.84093 25.487043z" fill="#B29797" p-id="1626"></path><path d="M817.381088 484.253831l-32.322205-2.201154L796.991453 308.393229c-0.2317-3.591356-3.359656-6.603461-6.951012-6.603461H233.959487c-3.591356 0-6.719312 3.012105-6.951012 6.603461l11.353319 165.665785-32.322205 2.201153L194.570419 309.320031v-0.579251c0-21.663987 17.72508-39.389068 39.389068-39.389068h556.080954c21.663987 0 39.389068 17.72508 39.389068 39.389068v1.158502L817.381088 484.253831zM743.700362 1023.884057H280.299566c-20.737186 0-39.041517-19.115283-39.389067-41.12682L223.880519 735.648762l32.322206-2.201153L273.348554 981.598735v0.579251c0 4.634008 4.054757 9.268016 6.951012 9.268015h463.400796c2.896255 0 6.951012-4.634008 6.951011-9.268015v-1.158502l17.02998-247.224325 32.322205 2.201154-17.029979 246.760924c-0.2317 22.011538-18.536032 41.126821-39.273217 41.12682z" fill="" p-id="1627"></path><path d="M794.674449 285.57074H227.008475c-12.743522 0-23.17004-10.426518-23.17004-23.17004v-23.170039c0-12.743522 10.426518-23.17004 23.17004-23.17004h567.665974c12.743522 0 23.17004 10.426518 23.17004 23.17004v23.170039c0 12.743522-10.426518 23.17004-23.17004 23.17004z" fill="#FFFFFF" p-id="1628"></path><path d="M871.13558 301.789768H152.864348c-21.663987 0-39.389068-17.72508-39.389068-39.389068v-23.170039c0-21.663987 17.72508-39.389068 39.389068-39.389068h718.271232c21.663987 0 39.389068 17.72508 39.389068 39.389068v23.170039c0 21.779837-17.72508 39.389068-39.389068 39.389068z m-718.271232-69.510119c-3.823057 0-6.951012 3.127955-6.951012 6.951012v23.170039c0 3.823057 3.127955 6.951012 6.951012 6.951012h718.271232c3.823057 0 6.951012-3.127955 6.951012-6.951012v-23.170039c0-3.823057-3.127955-6.951012-6.951012-6.951012H152.864348zM511.189013 32.438056H361.973956c-8.920465 0-16.219028-7.298563-16.219027-16.219028s7.298563-16.219028 16.219027-16.219028h149.215057c8.920465 0 16.219028 7.298563 16.219027 16.219028s-7.298563 16.219028-16.219027 16.219028z" fill="" p-id="1629"></path><path d="M511.999964 145.971251c-8.920465 0-16.219028-7.298563-16.219028-16.219028V16.450728c0-8.920465 7.298563-16.219028 16.219028-16.219028s16.219028 7.298563 16.219028 16.219028V129.752223c0 9.036316-7.298563 16.219028-16.219028 16.219028z" fill="" p-id="1630"></path><path d="M730.95684 215.944771H290.726084c-12.743522 0-23.17004-10.426518-23.17004-23.17004 0-25.487044 20.853036-46.34008 46.34008-46.34008h393.890676c25.487044 0 46.34008 20.853036 46.340079 46.34008 0 12.743522-10.426518 23.17004-23.170039 23.17004z" fill="#E5E5E5" p-id="1631"></path><path d="M807.417971 232.163798H216.581957c-21.663987 0-39.389068-17.72508-39.389068-39.389067 0-34.523359 28.035748-62.559107 62.559108-62.559108h544.495934c34.523359 0 62.559107 28.035748 62.559108 62.559108 0 21.779837-17.72508 39.389068-39.389068 39.389067z m-567.665974-69.510119c-16.566578 0-30.121052 13.554473-30.121052 30.121052 0 3.823057 3.127955 6.951012 6.951012 6.951012h590.836014c3.823057 0 6.951012-3.127955 6.951012-6.951012 0-16.566578-13.554473-30.121052-30.121052-30.121052H239.751997z" fill="" p-id="1632"></path><path d="M689.830019 1007.780879h-357.977114c-9.847267 0-17.956781 0.810951-17.956781-8.225364v-48.657083c0-9.036316 8.109514-16.450728 17.956781-16.450728h358.092964c9.847267 0 17.956781 7.414413 17.956781 16.450728v48.657083c-0.11585 9.036316-8.225364 8.225364-18.072631 8.225364z" fill="#E5E5E5" p-id="1633"></path><path d="M749.261171 1023.999907H277.403311c-10.774068 0-21.895688 0.11585-29.889351-7.761963-3.012105-3.012105-6.603461-8.341214-6.603461-16.682429v-48.657083c0-18.304331 17.26168-32.669756 39.389067-32.669756h463.400796c22.127388 0 39.389068 14.365425 39.389067 32.669756v48.657083c0 8.341214-3.591356 13.670323-6.603461 16.682429-7.298563 7.182712-17.26168 7.761963-27.224797 7.761963z m-468.961605-32.438055h470.351807V952.288634c-1.042652-0.695101-3.475506-1.853603-6.951011-1.853603H280.299566c-3.475506 0-5.90836 1.042652-6.951012 1.853603v39.157367h3.938907c0.926802 0.11585 1.969453 0.11585 3.012105 0.115851z" fill="" p-id="1634"></path><path d="M725.859431 720.588237H295.823493c-5.79251 0-10.658218-6.255911-10.658218-13.902024L267.556044 502.789863c0-7.646113 4.749858-13.902024 10.658219-13.902024h465.370248c5.79251 0 10.658218 6.255911 10.658219 13.902024l-17.725081 203.89635c-0.11585 7.646113-4.865708 13.902024-10.658218 13.902024z" fill="#FF6C6C" p-id="1635"></path><path d="M793.515947 736.807264H230.483981c-16.219028 0-29.541801-12.975222-30.121052-29.078399L177.192889 503.600814v-0.810951c0-16.566578 13.554473-30.121052 30.121052-30.121052h609.372046c16.566578 0 30.121052 13.554473 30.121052 30.121052v0.926801l-0.115851 0.926802L823.636999 707.728865c-0.579251 16.103178-13.902024 29.0784-30.121052 29.078399z m-560.830812-32.438055h558.745508l22.590789-199.262342H209.978496l22.706639 199.262342z" fill="" p-id="1636"></path></svg>